<mxfile host="65bd71144e">
    <diagram id="HIP3nbAZw_EuaXWnEj3U" name="Page-1">
        <mxGraphModel dx="702" dy="443" grid="1" gridSize="10" guides="1" tooltips="1" connect="1" arrows="1" fold="1" page="1" pageScale="1" pageWidth="850" pageHeight="1100" math="0" shadow="0">
            <root>
                <mxCell id="0"/>
                <mxCell id="1" parent="0"/>
                <mxCell id="7" value="http://ics2o.mths.ca" style="swimlane;whiteSpace=wrap;html=1;" parent="1" vertex="1">
                    <mxGeometry x="40" y="40" width="760" height="480" as="geometry"/>
                </mxCell>
                <mxCell id="11" value="" style="rounded=1;whiteSpace=wrap;html=1;fontSize=39;" vertex="1" parent="7">
                    <mxGeometry x="160" y="240" width="130" height="40" as="geometry"/>
                </mxCell>
                <mxCell id="12" value="mm" style="text;html=1;align=center;verticalAlign=middle;resizable=0;points=[];autosize=1;strokeColor=none;fillColor=none;fontSize=20;" vertex="1" parent="7">
                    <mxGeometry x="300" y="235" width="60" height="40" as="geometry"/>
                </mxCell>
                <mxCell id="8" value="calculate volume" style="rounded=1;whiteSpace=wrap;html=1;fontSize=20;" vertex="1" parent="7">
                    <mxGeometry x="140" y="360" width="130" height="70" as="geometry"/>
                </mxCell>
                <mxCell id="16" value="r" style="text;html=1;align=center;verticalAlign=middle;resizable=0;points=[];autosize=1;strokeColor=none;fillColor=none;" vertex="1" parent="7">
                    <mxGeometry x="50" y="235" width="30" height="30" as="geometry"/>
                </mxCell>
                <mxCell id="17" value="&lt;font style=&quot;font-size: 30px;&quot;&gt;volume of a sphere&lt;/font&gt;" style="text;html=1;align=center;verticalAlign=middle;resizable=0;points=[];autosize=1;strokeColor=none;fillColor=none;" vertex="1" parent="7">
                    <mxGeometry x="40" y="40" width="280" height="50" as="geometry"/>
                </mxCell>
                <mxCell id="18" value="&lt;font style=&quot;font-size: 40px;&quot;&gt;V=(4/3)&lt;span style=&quot;color: rgb(232, 234, 237); font-family: &amp;quot;Google Sans&amp;quot;, arial, sans-serif; text-align: left; background-color: rgb(32, 33, 36);&quot;&gt;πr&lt;/span&gt;&lt;span style=&quot;color: rgb(189, 193, 198); font-family: arial, sans-serif; text-align: left; background-color: rgb(32, 33, 36);&quot;&gt;³&lt;/span&gt;&lt;/font&gt;" style="text;html=1;align=center;verticalAlign=middle;resizable=0;points=[];autosize=1;strokeColor=none;fillColor=none;fontSize=30;" vertex="1" parent="7">
                    <mxGeometry x="50" y="95" width="210" height="60" as="geometry"/>
                </mxCell>
                <mxCell id="19" value="" style="shape=image;verticalLabelPosition=bottom;labelBackgroundColor=default;verticalAlign=top;aspect=fixed;imageAspect=0;image=data:image/png,iVBORw0KGgoAAAANSUhEUgAAASwAAAEOCAYAAAAzGSpIAAAACXBIWXMAAA7EAAAOxAGVKw4bAAAgAElEQVR4nO2de3ic9XXnP6MoXj9e1etVVa/rup6px3Vdl7iux0sJ9RCXJEAIoQRICOEWAuESIIRSlrrUDw9LKOsQSiiXQLgkEO7hFkoJ8bKOw1DXIR7X8bqO10XuyHG1rqr1qqpWVRSh2T++5/W8Gkuy5Lm8czmf55lnNKNXMz/NvO/3d875nd85MRxnEtKp/AxgLtABtNn9DLufaYf9EjDnCC/1D8CI/XwQGAT67dYD9GeysZ6yDt5pOGJRD8CJjnQq34KEZi6wMHT/a0ACWGC/nwG0Ai3j3B8NI8Bo6H44dL/fbt1I5HLAASRq+zPZ2NBRvqfTALhgNQnpVH42EqR5wHLgt4Bj7Lk2oB2YNcGf9wNDyCoaRMIyaM9h992TvH0rEr8Wu7XZc7OQGM5G1tp47z9i7z9g9+8Ae4AfAfvsfXsy2djwJO/vNAguWA2IuXHtwHxgFfC7wBIkGvORSASMIDEYQCLUjUShG/ip3fchUQqOGwIGj8baMasuEKzZFASrDQnWYuBXkIWXQK7nrNDvw1ZdP7LGcsBO4G+AHcjl7M9kY6PTHZ9T27hg1TnpVB508c8EFgEnAL+HrKgl9jsouGBDQC+wFQnT3yFLZT/QXWuWSjqVn4NEdqHdfh2J8BLGuqsB/Ui8dgIZYBP6f4ddwOofF6w6Jp3Kzwc+BHwQWI0skuK40jtInLLI+tgG9Gay9f3Vm6W2FLm17wOOA1YiyzLMMPr/NwPfBbZksrHBKg7VKSP1fdY2GelUvhVYgUTqI8jSmElBpIaAXegC/RtgIwpYjwCj9S5SExGyMmcgEVsDvB8JWILC5zOC3MU3kHhtzGRjk8XenBqjMc/gBiKdys9CVsQa4CwU45mDLsJRFIDeDnwfeJNCisDIeK/XLKRT+ZkoNrYYCfzvA8tQTKwFWV69wFvAS8AWYJ+7jbWNC1YNYpbUYuAk4A9QPKrDft0P7EUuzl8ii6q72QVqMswCa0PW1rHAx9BnuhBZZiMocL8Z+DawzS2v2sQFq0awmMxs5OZdgKyCecgaGESB8VeQK7M9k431RTTUusc+6wSKe50FHI8mhEC8dqHP+llgr8e8agcXrAixmb8FCdOngXNQ3CVw9w6iC+cF4K1MNtYfzUgbm3QqvxA4BTgXiViQwT+A4l2PAa8DQ40aB6wX/NOPCJvlVwFXAmci6woUON8IPA286LN7dUmn8gngfGTlLqYQsH8HeAh4KpON7Y9mdI4LVpVJp/JtaDa/BOVMBdndu4HXgEdQjMpn84iwyWQWcCIF93wOsnp7gSeAJ5Fr7kH6KuJXRBUw168DXQDXILdvFlqpehv4BrABBc/9AqghbLVxCRKuM5DVBUoX2Qg8CGz2RY/q4IJVYdKpfAdwKhKq5ShXqA+tSD0IbPLYVO1jVtdC4GzgIiRiwXf5GnA3sMM3Z1cWF6wKYa7fh4AbUCC3BQVxX0VCtcVP7vokncq3I+G6CiWqzkDpJi8DdwK73OKqDC5YFSCdyn8IuBktlwcrfs8Dd6AcH3f7GgCblD4J3IgsLpDF9QxweyYb2xfV2BoVF6wyYS7DSmAdcBoSqiE0665H+/gadntMs2LxyRloZfEqtHUqsKb/HLjPCxOWD796ykA6lV8EXA98Cm2+HaEQ19jsrl/jY8LVjiyua5GrOILSIe4AnstkYwORDbBBcMEqASuK92l0ggYuwXbgVuANP0Gbj1Bw/mLgMpQUPITK3NyGYpce3zpKXLCOAtvrtxKdgCegLR37UTD96zRA+RanNMziWoUWXU5FexkPAg+jwHyPnyPTxz+xaRAy+68FvoCSCYeA54DbMtnYnuhG59QiNrmdihZhgvjWDhTrfL3WCibWOi5Y0yCdyp8E3I6sK9CJdwNy/3zlz5kQq5x6GXAT2oY1AjwO3OxbfaaOC9YUsJPtFuBSlKHeB9yFVoEG3LR3poLFt5ahVeOTkLWVQyL2vMe2joxfaZNgJ9hqFHMIrKo3kXnv2zGco8Lyty5E+VsLUfmgp4Bb3NqaHBesCbAVwMvQSdWBNr3eA3w9k40diHJsTv1jk+EKFMs6FeVyvQ2sBd70yXB8XLCKsMD6ErQCeAYy23eiQPubHqtyyolZW59HE2M7mhjvAB7wPaaH44IVwsTqFGRJLUbVFJ4Crs9kYwcjHJrTwNh5dxyqt3UMCsi/AlzjpZrH4oJlWPPRP0LB9VbUQPT6TDb2TKQDc5oGC0PcDnwWVT3dj6rQbnHLXhT3sGtK0qn8AlSQLRCrDcCHUX6V41QFcwGvAz6HJswFqIb/FVaXq+lpegsrncofh1IUjkMu4AMoCdQ3rDqRECqffTc6LweBR9EqYm+UY4uaphUsOynOQAHORaif320o2OnZx07kWGfvu1DNf1AjjGsz2dje6EYVLU0pWBavuhCJ1RxUQ/2aTDb2WqQDc5wizBVch7aCtaHN9RcAO5sxYbnp/mM7AW4C/tSe2gpclMnGdkU3KseZGPMGPo1cxHZUT/5cmjDNpqmC7lba9kHgT+ypp4CTUeNMx6lJTJSeAD6O6mvNA74DfNo2VzcNTWNh2Urgg2gPF8BfoCCmJ+c5dYHlax2DzuPjUVXTdcD9zRJ3bQrBSqfyi4H7UFOIAbQ38MteCdSpN0y0FqIk0w+hFcS/QCvbDd90t6EFy77cRcC30eblPhS/+rrv1XLqmXQqPxeJ1qmoyclXkMfQ0JZWwwpWaCb6DtpkehDt13q02QKVTmNiZY/uQJnxAPcCNzay59DIgrUIeIGCWF3gaQtOo2Gbp28HrranvolSdBqyn0BDrhKmU/mlyA0MxOpclHTnOA2FCdNaFMcC5RfeZ9ZXw9FwgpVO5ZcBj6GYVQ9qK77B3UCnUTHRugltKwPlbK1Np/KzohtVZWgol9DcwGfRPqxuZBq/GO2oHKc6mHt4F/AZVKLmz4FbGymm1RCCZQH2OcBLwBqUCXxNJht7PsJhOU7VsRI1dyLRGkX7Y7/UKB5Go7iEbcDTSKyG0EqJi5XTdIRK1DyByi6vAy607T11T93/Ezaj3IcqhQ4Cl6Mvy3GaEotpXQ+8iOq7PQSc0QiiVdf/gAUV16Ig4ygqwPdMo5i/jnO0WEnvK4GNSLTuA06MdFBloG4Fy2aLS1HZDYD7ga82eqav40yDHuBi1ERlHnB3OpVfFe2QSqNuBQs4HfUHnIkK9q91sXKcAlYvax8SrRxq4nqnFQKoS+pulTC0Y/27qOb1FuAs7y7iOBOTTuXPRFUeOoCXgXPrMd2hHi2sdrQiuADYA1zsYuU4k2P5iLegvgWnATfVYxC+rgZsQfYHkYXVC1wF7I50UI5TPzwAfBUF4f8EOLveRKtuBmt12L+IGkcMo8oLG5uxrrXjHA1WUmk9cglbKHTlqRvqRrBQ3Z8b0Ji/Djzl6QuOMz0s3eE6FE6ZB6xPp/ILox3V1KkLwbLqC7eh7TdbgHX1GDB0nBohh5q1DqBSy2vrpVFrzftTFrd6FgUKDwAnZ7KxHdGOynHqn3Qq/8coED8CXAs8XOshlnqwsP4IbbsZAK53sXKcsvEVlMM4C3kwK6IdzpGpWTm1fKvVwPdQcui9wA2eHOo45SOdyidQGfHlwGbkwdRstdJatrA6UG2fWeiDvMPFynHKSyYby6Hif31oxfCGWk51qMmBWQrDjagQXx/adrM/2lE5TsOygUK10i8Cx5mHU3PUnGDZB3UicAWqwHAXWhl0HKcCmOdyJ7AVmI2uubmRDmoCak6w0Ad1CyrKtxn4ivcQdJzKksnGelF+1ghwLHBZLbqGNTUg+4BuQB/YAPoAG76brePUCFuALyPP5jrghGiHczg1JVjoA/oMhQL6W2s9L8RxGgXbObIe2I6KDKyrtXZhNSNYliC6Dq0ObgPuc7FynOpiNeHXocWu1ciAqBlqRrDQB7Ma6Aduy2RjPdEOx3Galg3A86iqw/XpVH5xxOM5RE0IVjqV70C5IDOA5/AuzY4TGaGqDjlgPqqdFemYAiIXrHQq34pM0PmonKsniDpOxGSysXdQqgPI+6mJMjSRCxZqKf9Z+3k9KnvhOE70PIO67gDcbp2lIyVSwbIP4EaUc7UFteiKckiO4xhWO+t21Jx4NeptGOmYoraw1qDCfEFL7YORjsZxnGI2UwjAX4dCN5ERmWBZfsf1qBLDJuB1t64cp7awQpm3IStrBRHXgY/SwjoJBfIGgdt9+43j1Cy7gYeRXlyFOlZFQiSClU7l21GL+ZnAy5ls7I0oxuE4zpExz+cu1KlqCXB+VGOJysL6FIVWXfdENAbHcabOXuB+FG++JKrGFVUXLFsZvAYF8V5HJS0cx6lhzMp6DCWTJoALoxhHVQXLlkTPBBYj6+prHrtynPogk43tBZ6wh5enU/mq18yqtoU1AwXt3LpynPrkWxS27Hy22nlZ1RasD6FaV4PAPb4Fx3Hqjr3Aq0g7rkQ9F6pG1QTLysdcYw9fB3ZW670dxykPVjPrayiks5AqrxhW08JagSysUWRdeSVRx6lP9gIv2s+XVLPIX1UEyyoyXI5iV5uBt6vxvo7jlB8L5TwIDKPOVlWr5FAtC2spymwfBR7B67Q7Tr2zC22pa0FW1sxqvGnFBctWEU4D5gE9wIu+Z9Bx6hvbY/gQMkJORBnwFacaFlYHcJ79/KjVjHYcp/55GRXdbAfOrcYbVkOw1iD1PQg8XYX3cxynCljS9zeQlXVaOpWfV+n3rKhgWRmKc1HC6Gbk9zqO0zg8j4yRJVShj2GlLawlqFLhMPCk5XA4jtM47EbGyAzg3ErXyqq0YJ2CYlh7gTcr/F6O41QZM0KeRUbJ8WifcMVoreSLo2B7C7Axk411V/i9nDKQjCeORzX2W1AmcyuwH3i9sys3HDruNlTPLEwWeKazKzdqx8wE/gj4j0XH/bizK/d46LXmAGegbR4HKZTKznV25bwpSe2zCe0vXIxKnlfsO6uYYKVT+eXAcqS8z1bqfRxIxhOz0ErNPHTRt3d25V4uOuYWNAPOR0LTAXQDH+jsyoWb1j6IapWF2WS38N7PLyBhC/MMimkEx80EPoeEL8yLwOOhxwm03aNYAP8cldEO/oc1wHeAAVSyNxC3+zq7cq+EjpuPEhoPoi0k/Z1dOZ8wK0QmG+tOp/JvoBDQBcBXK/VeFREs82NPR37tFnzf4FFhQjQXiUu73b/Y2ZUbst/PQAUQz0DfZSuyjAaT8cTmIiEKtkaF6UHfUdS0crhYAfxT0eMOJJKz7fEiuy+eEFejBGWAEWAkGU+MANd1duWeCQ5KxhPLUFJzIGy9wMGwJelMmZdQu75l6VR+aSYb212JN6mUhTUT+AP7eQPeDWdcQpZRO7CvsyvXF/rdF4FL0AU6y25twG9RWG0dsVtxXaIROzYsWD0czkwKF39An91AOxKGJ/jbHRy+Uz+HlrgDRpE7Wfz9F5/Mw/a32GsGItpbdFwL48ddDxQ9brfXKT62eBxnoya+g8hqGwR6kvHElZ1duR3BQcl4YoG9Xh8SNK/hdjjbkWGyEqU47K5EgnilBCuBZvRh4C89s71AMp5YBFyE/P35FCyoq5A7FabYNQO5V7sAOrtyo8l4ImyFDCOxGgCKN6T+0N4vcKMGgb/n8Iv9Sgqu3oC95jCHb6f62DhjC94/YGCC44aKHu8BTrafZ1GwtnJFx21DLuKvIFELXOBiQW0F+u2YmRSE69D/mownWoBftWNnUxDudsa6vgC3omzug0BvMp7YC/wIeK6zK+eJ0OIgChusQsbKvRz+PZdM2QUrVFW0FW1yfqfc71GLJOMJ0MUxA4nQKuTTb+nsym0IHboY+C8c7gItK3rcjS6cGUgERu2+o+i4N4D3Aj9FFkA/skzGBD47u3IPo84nk9LZlZuS+97ZlTui1WzB96kcN8QUArWdXbl3UFzrSDyPZvw5FCzY/8RYcZ6BhHmQse70MPrsgUMLB4vQRBGOxZ0AvIY+7+DYq+11t9v/cxB9Z8OdXbkpDLt+yWRjo+lU/iXgD1HNu/koO6CsVMLCagM+YD9vJvSFNjgL0d6qVegCCbgXucUBPUhYirOCf63o8Xb7239GF1Bw2x8+qLMrtxl9zo7R2ZU7wOGWYzHDwLXAHei7m4ssrllFVlMgeMX0EbLsLJ54LWOX9Xeh734dsjYbnT12W4pWC+8t9xtUQrAWUCg38e1GSRa1eNMyu6WAoc6u3I2hQ1rQF1V8ci8venwAncj7kMuTAzqRuxNmD3ADMNros3MUmPXXY7dtcMhKLo579aHvYRnwG+j8Xogs57D7m+DwVdNlKF4XTgeZjZo5/C2alHYBe4NUkDoncAuXAh9Op/KPlrvuXSUEK8jj6UZfSF1jM+ddaMYIYh2t6P8LC1YfEqHAbRhE4tSTjCdaQyd3D3AOchUGJ1qRMpFqhJO4bhjvM+/syg2iCrmvW9xrJoqbFX9vs9Ek04ImreDa+nHRd7wSVS85A8V4+tE5cktnV644hllXmFv4PeAK5Gl0oGuibJRVsCyd4cP2cBMVCLpVAhOluWiWXAU8WuQWzLffhZmbjCcSnV25nD3uB/4SNdbIopM3WCY/NBPbTFq8+uXUAfbdDTJ+PbftwFnoPJqLFkxSKK0HOGTBraRw3c2kkBM3xjpLxhMr0cLVVhQG6KsTK2wTcn/nIe+idgULXdjLkfXwvVp3By3B8HTgg8h8X0whaLrJDhtGK2yn2+MBu71DKIfJTqYvV2PcTu1hk1KQyxUUtyumBU1sO9AFPRsJ1jCHC9sFwBft+J3A9mQ88V1go1l9tcoA8BbalndyOpV/tZxZAuUWrARaURmixgLBZs5TNEudihIviz+HE5LxxKbOrhydXTmS8cQbwK+jpeydwK6prJI5Thg79x5OxhOPomslsMISnV25cG7abGRdBT8fb7cz0eR6qOqJnde1FOccATKowvAqtFLbN+lfTINyC9ZqNGPszGRjkacz2Ey1AC1Bfxz4LvBo6JC3UaAwnHg5jJbAW7Gcos6u3FaUxOk4JWPCtddur4xzyGwOD+Bjxx9K/7BQxt3AQDKe+O/Am8EuiKjIZGOkU/mNaGV0CRLmssWyyy1YH7T7DZMeVWGS8UQbmo0+gcRqFvpf25PxxBOhIOhutEp3AMUKMsiUP8DYBEjHqSbd6FpahLyA30Wxr+8VrUwuRgH8BcDVKHj/MvDtzq7cW9Ud8hi2U0jdWU4tClY6lQ8C00HMJ0pmoh6Iq4qeX4K+5CBTfDgZT3wCubC9dRLUdBocOw/70YW+3ZJX53J4TuNxKG4MOucXok3pLSiOFAmZbGwoncpvQSuhacZudC+JclpYS9GH2sfhe8UqQjKeaEcK/hFgfSiudBDV3woEawjNWlsoWo7u7MqVdRXDccqNuXnjnacHUax4Mbr2WpBn8FJwgIVFPoTiZa+jkj3VcBszSLBWpFP5mda0omTKKVjHIN97HxUUrGQ80Yq+nMDlOxZ9UT9OxhNPWaB8NBlPvAR8Em1deQm5fAfcinIahc6u3MvJeOJVtMK9GpUjb+Hw6iiXo43ea4FNyXjiMTShD1QwWL+TQnpDgjJpQjkF6/12v80aLVaK41BNpOKM8nOBp0KPtwC/HnUQ0nEqicW0dtjtfiuGGHYdO1CcCzTRfxKJ19vIXatUrHY38rbmIu+r5gQrWIb9mzK+5njs5PAPeaD4OfsiPXDuNBXhEkXGIrSyeAyFbUctSEAq6W3sQwmvC4DfQS3BSqYsgpVO5RNISQcoU2ccmylOR+VJruzsygXZ4f2osuXn7b1eRu3DGikWtYixCwZvoSTVy9Gq0QzgSeBL1R+aU2dsRcUIjkUly09CuVGPERKsZDxxHCpx9DVga6lFDC294W3kERXvpz1qymVhLUWrFAcIleY4GpLxRAe6KK+ksI3hO8ATcKgG1NeAH6CAY08DxqVORJUfAq5H8brjQs8VV3dwnMOwa6MP2JCMJzahAP0q4K0gfmX5XFcB56Nr781kPHE3sLlE4fqx3a9Mp/IzyhEqKpdgLaMgWPuPcOyEJOOJ5cB9aDYIl+79XDKeeC1YBbSs4KqsRNYI1yHTOkxnFANx6hcTn10c7gUtQ1tpQLHhM1AD5KeS8cRN47iZU2UP8rra0Plbcn2scgnWbyO/OFfi8uUwyiUJxCqYHbbQ3PGoBajKwzPAT4DfpAEqYTg1wzCF/X9BYck5KMerFKvoADpv5yNRrBnBCqpl/mg6f2Q1poYCl66zK7c7GU/cB6xH/+h9wANFzRSakW7go7hIORWgsyu3KxlPnIU8mxtR7LgfuDO80dpcx9Fp1LTvRtdxgsOrnRwV5WqkutTup+SmJeOJWcl44gokcMWdXJ5CBdP+M/AlFytAmcIuVk7FMKNhC4qVfgDtBdxSdNjNwPesd+URseJ9OaQzv12OcZZsYdkKYVAbe9L4lWXdLkFlaU9Brt/NyXhiS6j+1H7gKzW0+7wWmJbl6jhHg11zI8Bb1iYuaIgLWgC7DOV1LUvGE/cA906hCUewWbssHaHLYWEFA+lmkvrtlqF+BvA9Cj0LQR/EqfahEJR0ccbgffKcqjLOyvs1FJK15wG3AM9aF6jJ+IndH+m4KVEOwQoGcoDJG060ooqMidBzvajo3RsuUo5T09wDvEqhinAryuk6knu4Fy2eLUyn8uM1y50WJQmWtfRK2sMeJukMYltk1lJwG98GPt7Zlbs5lBTqOE6NYV7PNtSL4DoKJb5fQSvXk9FHodVbotSxlGphzaCQH7Q/k42NWT2w4Hr4PfYDF6Pg3QcjrtnjOM406OzKDXV25R5AQfmHgc+FVwyT8USLrSSGGaDQDq1kt7BUwWqlUI/nH4Ink/FEkAT6I+DMUHligI3An3V25ZqhT5vjNCK7gKvCnpG1L7sHeNrKPgUMUrDIipOfp02pq4RBtxmwLTkWPF8BPItWBO9Gfu+rcCiY12hbaRynaTDDI9xrcSZqmHEp1kE7GU9cZCuIAxQEK17qe5fDwgrUNIhNLUcbc5fY4/nABeOYis7EHERVKYKbW6NOLbMYdfmZgTTlDOC2ZDzRZmGiIIY1L53Kl2QklUOwgpbr3cl4Yi5wJ4XMd1Dy2U2l7v5uMl4E3he6bYp0NI4zCZ1duZ0oGB8ufPB54GpLZwqen02JmlOqYAXuYNBcchZju31sBc7p7MpF3kHHcZzK0dmVexWVPwr3TPxFZNT81B7PZ2xRg2lTqmDNtvuDKEM2h+qr34/yL86isepUOY4zMa8h0eoBLgLWWjpTENKI3MJaaPcHsWaOVorieuD3gX2eEOo4zYEtqD2D9gE/FUp5CFzCOZS40FfqKmErQJ7h4Xx+4NDK3yRdPhzHaWBMpMZc+/n80FAsNhMUMorUwpoHMPzzbUt7Dp64NhlPLCxKFHUcp0lJxhMzkvHEin/u+9jl9lQ7JRpJpYrLLwCMjv6ftnz+3/4YbWxeNvmfOI7TJHwG+H4+3//Zcr1gua2hfkookew4TkORA1rzvEs+fyiVcP7Ehx+ZEmNY+XaIkc8PkuddgG+jzY5Ok2HZzhei1aGlaHl7E+rCstkXX5qSLcB28qOrR/P/yntibaA41lFTooUVmwMwmv8X4N1BvExMU2L7yB5Ce8mOR7GKBagLy18BZ3tss/mwrTmbws/l8z+LNOgOQCw2M2gUUVKLL6f+MCG6EPg04ycFzkG1+ZeM8zun8fk+sVhPjNYRgHdHcyVZWGVpQjHzvSe8+i86KVuT8cS8I/6B00jMQW7gZJNf0CL9v1ZlRE4tsWVG68pPtLT84tPA/Nb3/EZJ+2LLIlj/NrzhfGT+O85E/FbUA3CqT2dXbnD1ynt3Qb4FIJ//1+hdQsdxnIkYeffvW0dH++YA/OznPyzJAyuPSzjjxGf6/99tN9DczU6bldnAt1BPu8nIVmEsTk3yLjDaAtAS+4VSGi2XR7BGR/+5AzgYbrroNAfJeOIA8Agq2jjRTvx9wHNVG5RTUwwN/4/Zs2Z+egbAe9+78uCRjp+MsriEI+/uWwbvaTvykU6jYWksTwB/wdjSIgHdwLX43tKmZWj4B8dCHoAY7y3ptUoVrD6AWOw981ti/35lia/l1ClmWa9Fq4UvA9tQV6R7Ubmhl8fpc+c0Acl4onV0tPcj5Xq9Ul1CM+/+HXl+fkEyntjolUWbE9ul/7zdHCdgIYyc0BL7heDxkTpFT0oZVwnfPQltyXAcxwm4GFgQix2KGPVMcuwRKVWw/i9AS8t/AN7TAVzvzSYcxwFIxhNLgE+V0y4q9ZV6AVpiv9QPLSPA6cApJY/KcZy6xgyX64BF72n55WAxJiilftSUKlhDAK2ti7pjvHcn2qZxczKeKKmEhOM4dc/paPfLSOt7ki/bc4OU2JO0VMHqBojx3rb3tv7mTcg/XQnc6bvzHaf5sK7vi1C7vzZg0y/8+y9+337dS8QWVpAE1vGL/+GpbcBtqCPs2cCfumg5TtPRjuriLUSds659T8uvBNkIkVtYB20AM5GaPgo8jNIlbgKusEaKjuM0OBYKehp5Wf3ANcBu4FfskG5CLe6PhlIFa4TCMuX8zq7cAHAL2oYxA1gPXOYrh47T2CTjiQXAg8BJSJSuBzbYTogFdljkQfdhQoIF0NmV60HK+jIqh3o78MVkPFFS4S6nKrSghZMEcAyw3H72bVfOhFjM6mvAqWgh7jbg8c6u3Eg6lZ+BzimA3kw2FqlLGLawgqaqgWhdAmxAJ/stKBA/+7BXcGqFduDzwHeADPC3wI+BHwAvoAJ8jnMIC7CvAJ4FTkMxqq8Afxba8TILnVsAXaW+ZzksrKAscjz8i86u3EHgPLRVYwZwGfCCpzzUJMcA30c12U9AJnwQe1yIzPyrohmaU4vYgtqpwHeBVShmdUNnV25dqOMzSLA67OeSO2qVw8IKBjHfzL9DmGhdDPwZErcPAT9MxhNneDC+ZliGGkUst8cDwKvAjajKwroEugMAABruSURBVDNYgnCV+CPg53Y7qYrv60yRZDwxB4V6XkLNlHPAWcAD4xw+244BrRqWREmClcnGADrt4TzGiXXYTv5b0U7+/Wj2fhK5iAuKj3eqyizkrgfufA74hN2+jErGXAR8EHizSmNqQdadT2g1RjKeaEnGE6vRBPeHyHN6DTgZ2DhBx6w5FGJY75Q6hnKcFIFqzkNqeliBrs6u3HAynnge2AXcjdyOq4HVyXjiFrSaUFIlQueoWEFhK9UAcDnwBmNzZYaBHZRhdnTqk2Q8Abq+rwI+ixbY+pFFtd48qYlYhCahXCYbK7kicTkEa4/dz0WCNS5WD2lnMp44Cy15XobyNZ4GXkzGE7cC73jdpKpyIgWr+GXUQ26iz7+420kr+v4+hmJgQ8APUcyyO/Q6FyJ3AZSbt8j+pt2Of4ZCcb9LkUUXcAvwOfu74Dxrt3GfjM65/cB/R0IbHuO30Pm4D1n4lwK/i2J191NiPlCzYA1yT0TfRVDzbjuwDnhtCtfrb9p9ydZV2Uin8v83ncrn06n8aVP9m2Q8cXwynvh+Mp74eTKeyCfjiX9MxhP/JRlPtJuiO5XnJVQK8l2mtwrYAvwJ8C/29z9DMac88HfAcaFj19vzeXu/fws9zqPVyEV27N1Fv8sD/y/0egnkjrxrt5/Z/c+Bb1BYjQL4J/v7n6KVz+D1vjWN/7NpScYTrcl4YnkynngyGU/8zK7Rf0nGE3dNtZVfOpUnncq/YNpwTznGVa6tM7vt/pip/kFnV24zqkZ5OZol56OTO4My5D33p/J0hH4+MI2/Ox/NuLNR6srHgXNRldFlKCdnvNXg09Ds/ByFdJgV6BwAWVzbQse/ATyFgv4zUe/LINfnyyi2djNyTy5ECwXFLLD33YosSG+GcQSS8cRCtGL81xQa5L6BPu/rO7tyUz1X2tDnP4omspIpl2DtsPv3TeePLG71TeB3gP+GTuJl6MP622Q8cZmtSDiVIbz61zHhUWOZCdyAXMK9SLh2oM7fNyG3bDkSiWK+iU7685DABW7ZKrt/Bu1DC7gTuBK5E2vsBvAiEsWcvebj6Fy+kMOFctBeI43cyHun+H82FcGm5WQ8cQeyeq9AizLbgXOAjwJbpxmymY/c9iH0XZVMuVZi/g6p6KJ0Kt+Wycam3N3VPoDeZDyxDpnr1wFnAIvRjHpVMp74GvKXvZFBecmiz7oF+DDwCkfeOtGBJhXQ7PltCvGqFnSSt6BJqJinKTSqeBMJ1gwKsc9RxsbQRkPjWWWvDSpdsiZ0XPB8G7CEQm4g9vNzWCkkZyyWXrQcxQ7PpCD4O5Cb/cw0LKpi5qLzZYiCF1YS5RKs3WhQ89A/vGfyww/Hks12JeOJq4CH0IrEqejDvAe4JhlPPImCw3uKktOco2MjcqPaUIWNJ4G3Jjh2JvqO2ylY5oOMFQdCj8er3R2eyKb7/f1S6OcerAFKiL2MH0gfGufYpsZixG1oErgE5UfOQxPEbrQn8EVg/wSpClNlqb3PO5QhaRTKJ1h7KAjWQo5CsAIspf/tZDyxFTXnvATNqEvRHqVrgFeS8cRjaBYYKPFDbWa2owngfDQTfgNNFG9RsIRaUVD8dLTtYr/9LnAXPkZBiIJ9Y8OM3/KrFP4eXVAtyFUMJynOpiCoU7bumw3LTu9Aq34Xo/Simej72oW+/6eA7jJdU4GVva0cKQ1QJsHKZGO5dCrfg0RlKQrQlYS5iluALeZXX4ByQOahlIjPoAvrWcvx6gNGXbymxSBanj4WuVKL0Yram2jx4yDwn1Gu1h4kWP1I5D5tf/d5lCbQAnwBZcd3o3jWq2Uc6+toYWA+ChvsROdHEDpYYs+dxzi5gM2KWVMt6Lq8GLl9warsKLqGHgFe7OzKldTRJkw6lYdCGkTZFjrKWWBvs93/XhlfE4DOrtyezq7cOuA3kK+9CYntich8/QfgMeBUyxtxpk4OBaM3U6htdhLKXboPTQzhZewR5EZuR1bWeuBfUYrDrWgGz1E4H8rFO/a+/UicMiid4SfoPGgH/hIXq0PYTpIr0Gf1P9G2p0Vocv8m8H7gA51duW+WU6yMRcjbGkLWW1ko5/aHLDq5V6RT+VmZbKzsbes7u3IDyXjiCeRfr0Cz6Ulolj0fxWH2J+OJ15Cl8LbV6HImJ4dE60K0LWcxBZHqRvGhR0LH70eu4FoUZ1yIxC6Hvps7qYxwPIWsrBuQdTcHCdgOJK5N3xPRUhKORyt7q9Fn1IrcvrdRLtxz6HMcqaBHstTeu5cSQkTFxMr1QulU/gQkEsPAhzPZ2I4j/EnJ2ArHfPQFnYcSDIPl+X50ob2BdpTvBHrcZTwiwd6vIA9uAInPeDPwDCRsc5Bg9WEXQuiYeWi1CGQlhSeyY5CVP0ghE3ouYzfLjjfhBBtqg/hLD4cL5DJ0oQ5Rxgum1rBrYBH6LM9BQj4ffTcj6DPciBZUdgEHq3ENpFP5P0YbpN8Gfq9cMaxyCtZ8VDspAVycycaeKNdrT4XQ8uyJFKyEIPN5EJ20m5HbsAs44F2qnXojtMK3AAXNT0axoqAkUCDgW5A1tbmzK5er9jjTqfx3Uezz/kw2VrbSRGUTLIB0Kv9XyEV4IJONXVnO154OFsdagZZrz0LiFeQHjSKXZjPwP1A8rBsY8n2MTi1ik/EsZDWehJJgj6WQvxasym5EIvUWsC+q8zmdyrehuHIHcE4mG3uuXK9d7hIe30eCtabMrzstLIN+i92+lIwnVtqYPorcx4V2+xT6sncCbyXjiR8Am46w+9xxKo6lICxCVsr7KRRWDHMAbY36LjpvjzbBs9ysQlbgAcoYcIfyW1jHo53zAKlMNlaW7NZyYKZ0K3ITA1P6BHRSBMI9igRsG5qlssC2zq5c7ew0dxoS63kQ1NFPo4D5QuQVhBN1tyHv4Dv283AteQaWzvCnaMvWFuAjmWysbCuQ5bawcih4ugw4IZ3K77Yif5FjgcagBv3zyXjiZRQsXoSsrw+g5fJFyAo7HolXfzKe2I8+/L9GsbB9NTSbOXWGuXgLKQTLfw9ZJcFiR3BdDiHrfxcyBLag87e/hhePWoHfRyK7mfEXa46acltYLSgf6ny0kfW8UrtkVAuLe81DJ9FqNMslkBke5HaNotWoXiTMP0L5SHvtuV7fMuSEMcupA61+LkXu3QoKG4PD3aR6UTx1D1rAehsZAb21ZEVNRjqVbwf+Ea1SfiSTjW0o5+uX3fxJp/IXItE6ACQrkY9VDWwWXICsruXIAluGZsHZjLVOe1Egfx9yI3chIRuw22C9nHDO0WG9N9vQ5BacN2k0AS6wW7hk0iA6N3opWO870UTYV6/nSzqVPxN1WdqH0hnKsocwoBKCtRjVNWpH+Vglb9OpFaxG11Jkxv8OMuOXo9mklbE7B0bQl7bX7v8OnZC7kVkfVCaoZPKeU0YsEB7cZiALfDnwW0iYFiNhKi5wN4K+6140kQV1v/YAexvFKk+n8q2o7M+lKIH4vEw2VtYqGZUQrDaksCcBXwWurxe38Ggwk38ZOnHfhwRtBTL3J9r61IedrHb/90jU9qGNp54fVgNYLbYFSJgSQBIJUxDrnKij+TD6Xnej3o47gR2dXbmGroufTuXnIktxMfC5TDb2cLnfoxKdSQbQMutJFPZ4VbNNVFWxrkBbga02A7eiE7kDWWJLUV3rwDVYiNzKY+0GmoEP3ZLxRGCZ5VDzyR7kYvfaradRZuWosKa+7RRqNs1F382vIXFaaM+3hm7FE9BB9L3k0Pf1E2Q5BRn9wzSXBX0MOs+H0Gb1slORJbx0Kr8UbbYE+P1MNjZRjaWmwISszW6z0QWxGAlZkJHfYffjNfIYQRfAUOh2EAlZDgU5g4unn0INqGEKMbS6jCVOBft8g7hiO5ow2kK3hcB/olCvbT6FeFP4VixII+hz7aMwabwD/C9kQR1A30s/+owr9B/WPrbgdh/abL0R+Gi53UGoXO+3fchXXwV8PJ3Kb25kt/BIWAC1327dhKovWnB/TujWQcH9SKCLLaj31Ga/H+/iChjA0jEoZEAPJuOJIWSdBeP4Zwqdu0fQRRkkzI4wtkLnMONX7Cw+7ki0TDD2cKXS4uNaKGw7aUOi0wr8auh3wWcTVC+dYa8XThGYaOwD6H8fpDABdFGIPfahz6vXN9JPyjyUCjSKPKyKVHitlGANocS2VSg5s4NC0wEnhLl2gas3LhZLCayw4OcFyGoIXJm59nzgvgTuTAvjuzOTMczYKp3BilYxgXUxVVps/MWxn+D54HwMRHw6Yw4C22H3+iD6XwJ3uhut5gYWaZCi0otW5hrWCq0CQfhjGHi5UvmXFcvqTKfySyi4hR9tpNXCWsVco7kURC1IROxAFscv233wu2AJHjtmwr6SETKKBGeIsRZh4I79bwpW0gCaGAft9wO+zao6pFP5h9Dq4JuZbOwDlXqfirUDz2Rje9Kp/FZkJp5LGaqQOpNjrucBptey6zDMogt30ZlIzAKLbzoc4HBrLSxKAft8tbQ+SKfyC9FukRHUaKRiVEywjCfRStgJ6VQ+kcnGchV+P6cMdHbl+hjrEvpeSmcyTkDx1l4qtDoYUM4SyePxGjLRE+ifchyngbBk0XOR8fMmWqioGBUVLLOo3kL/zHn2zzmO0zgcgyr9DgHPVjoboNIWFsgtHESu4YoqvJ/jONXjEyiOuYeJe1qWjWoI1ia0GXgOMh0dx2kA0qn8TNS4pAV4IZONVTx1qeKCZcW7nrSHn0mn8rW4dO44zvT5JNo10EOVOhZVw8ICrRzsQ1bW+VaV0HGcOsWsq4uQhrxBlVaSqyVY76AVwxbUfbZt8sMdx6lxVqJCl8PAI5lsrCo5c1URLOtJ9ggKvq/EUxwcp25Jp/IzgMvRFqvNqFpJVaiWhQUKvL9h73l5OpWfdYTjHcepTZYCp9vPD5azycSRqJpgWankO+3hKRRqQTmOUydYGZlLUDx6L/BKNd+/mhYWqHb1W8iUvNYCd47j1A/HAGejfYN3oDBP1ai2YA0D99j9Caj8jOM4dUDIupqPNqs/V+02flUVLPvnXkHF/dpRLGuiutiO49QWy4AzUXWNBzPZWNVL91TbwsLKpt6D9h6dhpZGHcepYSx38hJUPy0HPB7FOKouWMbLyMqaA9wQ0Rgcx5k6i1CD5FHgoUw2VtGqDBMRiWBlsrEB4C5kZZ2QTuVP8ex3x6lN7Nq8BRVs3AF8M6qxRGVhgTLfN6KSvTdT+WKCjuMcHcvRvsFR4EFKrGhbCpEJVsjK6kc5WWe7leU4tYWlHt2MUpG2AC9We2UwTJQWFiit/1Ubx1rG1hF3HCdCzIA4ES2OjQB3VKOEzGREKliW/X4bakqwHJWfiVpEHccRHcBNyLraCGyIdjjRW1igpqJ/YT9fjzJpHceJnvNR16sR4EYzMCIlcsGyGtDrUYPLecBa37LjONGSTuWXAdeiQPsDKA0pciIXLDhUlXQdhWTS06IdkeM0L7b7ZC3qKJ5DsatIxxRQE4JlPIX85DZgXTqVnx/xeBynWTkNOAPt+V0fVZLoeNSMYFnFwltRjscy4HoPwDtOdUmn8u0oSbQNGRDPRDuisdSUIGSysS3A11ES6WXA8Z6b5TjVwQyEm5HB0APcUs3ifFOhpgTLuJuCa/gg4F12HKc6nAh8HunC+kw29nbE4zmMmhMsK1lxE3AQKf1NXoLGcSqLxYzvRN7N68Cj0Y5ofGpOsIytqJohwBXAmuiG4jiNjaUR3YByIPuAtZlsrC/aUY1PTQqWddl5AG3dmQ3clk7lE5EOynEaEIsRnw5cinKubkMVGWqSmhQsAFP4a5Dir0KuoSeUOk55WYpW59uAN4H7LZm7JqlZwQLIZGPb0Ic5jLYJfCbSATlOA2Gt9u4ElgDdwJW1sP1mMmpasIx7geeBmcg1PC7i8ThOo3ALcBIqPnAdsCfa4RyZ2si3PwIWv/o2cg13AB/MZGO9kQ7KceoUy7c6FXgWGQJfAW6y2HFNUw8WFplsLIf2NvWgMjR3eudoxzlqlqDimbNQN/Y760GsoE4Ey9jE2HjW5z0/y3GmRzqVn4eSsxcD+4Aboi7KNx3qRrBsBngYeAKNex1wkm/dcZypYV7JOhS3GgKupIZTGMajbgQLDvU0vA7Vlp4N3Id3j3acqXI12qM7gryV12ulbMxUqSvBMvqB84C9qF7P1zyp1HEmJ53Kn4+2vLWgUk5fruV8q4moL3kNkU7lTwG+AcxFtaYv8JVDxxmLhUzWAE+jir4bgIsy2VhkrbpKoR4trIANaMYYQD75Hb5y6DgFTKyWAo8gsdoGXFuvYgV1LFhmzj6ONkmPoCz4P/TtO45ziIVIrBahFcFrMtnY7miHVBp1K1hwaOXwK6joHyhz9+p0Ku9dpJ2mxiqHPoS63gygbTebox1V6dS1YMGhlcMbgG+i/+dW4FIvr+w0K+lUfi7wLRQqGUGLVK9FOqgy0RAXtYnWtShrdwZqG3aFi5bTbKRT+dkoMfQUYBBVPHm13tIXJqJhLmirPX0BCsa3obo+l0Y6KMepIulUvg1VXzgb63gDPFyP6QsT0RiyGyKdyi8CngSOA3qBi4HXGulLc5xiTKzuQImhw8BXgVtrvVzMdGkYCysgk43tRSK1DegAHgM+7YF4p1ExsboNlRMfBf6cBhQraEALK8AsrReAFciXvwp43C0tp5Gw1cD1FMIf/xW43eK6DUfDWVgh9gJ/gPYdzgLuAS7zQLzTKNhq4GPAZ5FldTNwW6OKFTSwYNmqyD4kWhuQaN0B3OxlaZx6xzyIb6BCfEPAl4D/Zh3UG5aGdQnDWM+1hyjkpdwP3JzJxgYiHZjjTBPbbrMYLSytQkmh64AHGl2soIEtrDCZbKwbBeKfQo0ivwjcZf6/49QFFs5YAXwHOBY1G16LOt00vFhBk1hYAZZUdwvwBSTWrwOfA/Y3SmKd05iYWJ2CPIX5qFz45cArzbSQ1HRXqcWvrqDQlnsH8LlMNvZ2pANznAkwsboabTubDbwDnGNt8JqKpnAJw5jpfD9wEYWmFi+kU/lPRTowxxmHdCo/B1XWvQOJ1ZvAR1GeYdPRdBZWgM1aJ6LuIcegSqZ3okqMDbss7NQHFlxPIBdwDUpbeB41jeiObGAR07SCFZBO5Y9BorUGWZyPo3yWfR7XcqLAdmWcgDYxH4NWAr+K2nH1RTm2qPErkkMJeLeiIoAzgLdR9Ye3mymg6USPVc29DKUqtAMHUPmk55plJXAyXLAMm9U+S6HBZC8SsfvrpcmkU99Yz8C7gDPRxLkTVSDZ7ta+8E8hhMUNjkVxg+UoyfQVVAd7f4RDcxoYi6d+CPgaKmc8jHIGr7WySY7hgjUOlhl/C+owPRPYg8zy190sd8qJJS9fh5KZ24Bu5A4+5Ys/h+OCNQEWS7gQZRIvRKuIXwfuauZVGqc8WAjieDQxrkYLPhtRJ6itHjsdHxesSTBTfTnKgVmDTqq30Srimz4DOkeD5VZ9AZU8mgv0AQ+jsjAHoxxbreOCNQXM2lqLso3noPpaj6PZ8KAHRJ2pYFbVCpSucJw9vRO4MZONvR7ZwOoIv9KmQTqVPw4VSzvBntoL3Ij2c3lsy5mQdCrfgc6Vq1FcdBC4F1jvVtXUccGaBraK2IZiW+tQN90R1ELp1kw2tjW60Tm1iFnnZ6PzZREKK2xGFvtbHquaHi5YR4HFtpagPK3T0IzZAzyBzH3Pkm9yQkH1G9EWsJnAfrQv8Ot4KOGo8E+sBGz2PA2dlMvR7PkOcDvqBdcb4fCcCAhNZtcAn0LZ6v3ICl8P7HCr6uhxwSoDlqF8JdpSMQ9tVN2MNlO/4ZVNGx8Tqnlot8QlaOPyCKqqcAeawHxVuURcsMpIOpVfihJMP4OsrRHUjXo9Kgsy6m5AYxGKa16GCuotsV/1IEv7Uc9WLx9+9VSAdCq/AsW3TkJ7wkZRUuB6YJPvTWwMLEv9QjRJzbene1BO1R3NXlmhErhgVYh0Kj8TBV2vQaVtg6XsN9FexQ3uKtYn6VQ+gVb+rkS7IFqRUD2DNi/v8zhVZXDBqjDWlXcNchfWIPdhENiOhOs1oMddxdrGYlTLgHNRMD0QqgPAy2j1b4/n41UWv0qqhK0orkHbMY5HGfOjqKb8k6gqRM5P+NrCGpcsRyW1T0Wu3yhKUXgeeBrY5hZVdXDBqjLmKh6HLK5TUJ3uFrRL/3Vkde0ABt3qigazpuYAZwDnoM3Js9Aiyn7gEVRQb09kg2xS/IqICFtdWoLajJ2PlsRBs/dW4FvoouiJZIBNiCV7BtbUJxn7nWxDk8kzvuoXHS5YEWOzeRsK4l6AZvNWdJEMIavrBRSk90TUCpBO5Zcjd+8TSLBa7Ve9yFX/FvAWMOJWb7T4p18jmMU1G1ldF6GUiMXIXRxCF88bqOvvVqDb4yZHh/WmXIY2sX/Cfp6DPutBZE29ALwIHPC4Yu3gglWDmNW1AAXnzwFW2uMWVD43h1YZX7L7nGdRT4xNBu1oAlgDnIxEai6FCeEdlCv3Ato+4zlUNYgLVo1jcZXFKFB/Dqqn1EHBbexBFkEGXXA5oL/ZBczSSdqRi3cyqtW/DLnfIEsqbLVu8Xhh7eOCVWekU/nASvgohbyuIOYyQsH6+hskYHuQVdaw8RezSFvRZ3Ec8AFgFRL3djtsFH0++1Bc8K9QKWKPC9YRjXkGNwmWI7Qa+DCKx4QDxgEHkQW2BfifqMLl7nqPf9n/fgz6n38Huc3HoB0FYfrQ//59lKS7q97/92bGBasBMAtjJorJrAbSyLpYigL5ASPI2hoAdqN8r5+g3KK9yL3srZUL2tzh+XZbiArg/TZy7RJon+YMFIcCWVEHkIW5FfiB/TwADDeqhdlM+DfYgIQSH+cgC+T9yPpYiIL3c4r+ZAjVbBq0+33ItfwpErODod+Hb6B42ZQ2c1u2/0wkMHOQNTjbnpuNhOlXbYzBWGfZrQ2JU8AIEthuJLY/RA1C9qHYlCfeNiD+jTYJZq3MRaKQAN6HLJXFSCzmIGEodqlAlssAErZBux8KPT/V6hPh159NIe4003433vsGYtqHhPMd4EcoNteNLKqDtWIVOpXFBavJsZykeUjIOpBV82v2eJH9LgjstyLrKLiHsVbPkQgC39h98Di49SKLbj/Qhay8HrvtA/pcmJobFyzniJgr144ELfh5FhKrDgridSSGkfiArKUgtaAfVaxwMXIm5f8DDHqrG0i0KBEAAAAASUVORK5CYII=;" vertex="1" parent="7">
                    <mxGeometry x="370" y="90" width="300" height="270" as="geometry"/>
                </mxCell>
                <mxCell id="15" value="radius" style="text;html=1;align=center;verticalAlign=middle;resizable=0;points=[];autosize=1;strokeColor=none;fillColor=none;" vertex="1" parent="1">
                    <mxGeometry x="120" y="275" width="60" height="30" as="geometry"/>
                </mxCell>
            </root>
        </mxGraphModel>
    </diagram>
</mxfile>